<?xml version="1.0" encoding="UTF-8" standalone="no"?>
<svg
   version="1.1"
   style="display:block"
   viewBox="148 122.667 1812 1812"
   width="1812"
   height="1812"
   preserveAspectRatio="none"
   id="svg50"
   xmlns="http://www.w3.org/2000/svg"
   xmlns:svg="http://www.w3.org/2000/svg">
  <defs
     id="defs2">
    <linearGradient
       id="svgi_r_2p___Gradient1"
       gradientUnits="userSpaceOnUse"
       x1="1648.8"
       y1="1260.88"
       x2="347.10999"
       y2="853.573"
       gradientTransform="translate(31.591532)">
      <stop
         class="stop0"
         offset="0"
         stop-opacity="1"
         stop-color="rgb(71,70,71)"
         id="stop1" />
      <stop
         class="stop1"
         offset="1"
         stop-opacity="1"
         stop-color="rgb(98,97,97)"
         id="stop2" />
    </linearGradient>
  </defs>
  <path
     fill="#000000"
     d="m 442.18053,158.402 c 4.552,-0.563 10.794,-0.471 15.472,-0.481 20.176,-0.042 40.355,0.022 60.532,0.041 l 145.926,0.016 467.78097,0.007 374.15,0.01 108.37,-0.1 c 23.32,-0.021 53.78,0.158 76.9,2.331 44.88,4.221 93.97,26.273 128.32,55.603 48.35,41.291 80.49,103.343 84.07,167.198 0.56,10.037 -0.03,22.567 -0.07,32.963 l -0.06,65.487 1.04,169.007 -1.04,557.106 -0.01,328.97 1.07,94.39 c 0.1,22.12 0.94,40.55 -2.42,62.39 -7.29,47.45 -27.54,89.61 -60.51,124.43 -9.85,10.4 -23.66,25.5 -35.06,33.9 -33.07,24.32 -83.09,44.12 -124.17,46.33 l -873.74397,0.84 c -84.693,0.46 -169.387,0.18 -254.075,-0.86 l -75.181,0.01 c -17.978,0.01 -38.338,0.91 -55.76,-1.84 -89.275,-14 -162.153,-72.68 -192.529,-157.8 -19.265,-53.98 -14.755,-86.45 -14.617,-141.63 l -0.212,-142.9 -0.832,-460.064 0.792,-420.633 0.151,-132.206 c 0.03,-20.017 -1.761,-52.815 1.064,-71.779 17.615,-118.235 107.051,-198.573 224.652,-210.736 z"
     id="path2" />
  <path
     fill="#000000"
     d="m 244.77253,620.018 -0.041,-144.841 c -0.007,-37.979 -2.601,-89.608 6.172,-125.167 9.45,-38.273 29.234,-73.213 57.191,-101.006 31.952,-31.749 73.011,-52.74 117.457,-60.05 21.472,-3.442 42.633,-2.822 64.271,-2.825 l 70.499,0.028 242.389,0.018 853.86097,-0.031 c 60.55,0.345 114.08,19.632 157.1,63.356 31.62,32.044 52.54,73.091 59.9,117.504 3.15,19.874 2.68,42.519 2.68,62.815 l 0.01,70.638 -0.03,253.429 0.02,866.464 c -0.56,59.38 -22.39,112.86 -64.94,154.67 -28.47,27.91 -64.11,47.39 -102.97,56.3 -27.45,6.22 -56.51,4.94 -84.62,4.92 l -80.64,-0.04 c -80.18,-0.03 -161.95,0.9 -241.97,-0.02 -1,-0.01 -2,-0.03 -3,-0.07 l -608.84997,-0.01 -165.221,0.04 c -32.213,0 -72.757,2.16 -104.204,-3.3 -87.309,-15.14 -160.049,-91.38 -172.566,-178.88 -4.906,-34.29 -2.624,-77.4 -2.607,-112.45 l 0.018,-199.23 z"
     id="path3" />
  <path
     fill="#e5e5e3"
     d="m 244.77253,620.018 -0.041,-144.841 c -0.007,-37.979 -2.601,-89.608 6.172,-125.167 9.45,-38.273 29.234,-73.213 57.191,-101.006 31.952,-31.749 73.011,-52.74 117.457,-60.05 21.472,-3.442 42.633,-2.822 64.271,-2.825 l 70.499,0.028 242.389,0.018 853.86097,-0.031 c 60.55,0.345 114.08,19.632 157.1,63.356 31.62,32.044 52.54,73.091 59.9,117.504 3.15,19.874 2.68,42.519 2.68,62.815 l 0.01,70.638 -0.03,253.429 0.02,866.464 c -0.56,59.38 -22.39,112.86 -64.94,154.67 -28.47,27.91 -64.11,47.39 -102.97,56.3 -27.45,6.22 -56.51,4.94 -84.62,4.92 l -80.64,-0.04 c -80.18,-0.03 -161.95,0.9 -241.97,-0.02 -1,-0.01 -2,-0.03 -3,-0.07 l -188.44,-196.57 407.71,0.01 121.65,0.01 c 21.73,0.01 48.64,0.75 69.92,-0.59 l 64.64,-65.94 V 540.128 c -32.23,-33.39 -66.33,-66.21 -99.25,-99.021 -31.05,-30.959 -50.2,-58.517 -97.79,-58.521 -79.73,-0.005 -159.81,0.006 -239.7,-0.002 l -484.86497,0.017 -254.16,0.026 -75.238,-0.125 c -35.352,-0.057 -63.837,-3.966 -91.396,22.789 -11.33,10.876 -19.132,24.904 -22.395,40.267 -2.65,12.863 -1.975,32.34 -1.973,46.031 l 0.07,59.438 c 0.126,76.782 1.011,156.877 -0.194,233.499 -53.635,-55.171 -107.612,-110.008 -161.928,-164.508 z"
     id="path4" />
  <path
     fill="#000000"
     d="m 1753.7115,397.158 c 4.57,-0.142 10.14,-0.578 14.56,0.499 8.59,2.094 6.63,14.403 3.7,20.533 -17.27,1.315 -25.37,-1.549 -18.26,-21.032 z"
     id="path5" />
  <path
     fill="#000000"
     d="m 1706.7915,397.234 c 4.98,-0.269 11.23,-1.132 15.73,0.413 4.99,4.331 4.41,15.609 0.98,20.657 -4.58,0.302 -9.54,1.052 -14,-0.437 -8.14,-2.713 -6.38,-14.521 -2.71,-20.633 z"
     id="path6" />
  <path
     fill="#000000"
     d="m 1661.1915,305.357 c 14.83,-0.611 22.69,0.931 16.55,18.933 -0.54,1.579 -1.72,1.419 -3.39,2.008 -11.94,1.09 -20.06,0.932 -17.02,-14.322 0.85,-4.24 0.28,-4.184 3.86,-6.619 z"
     id="path7" />
  <path
     fill="#000000"
     d="m 1753.7115,351.209 c 7.66,-0.238 13.7,-2.13 19.19,3.598 2.03,4.628 0.73,12.187 -0.3,17.119 -7.27,0.449 -12.56,0.348 -19.87,0.104 -0.31,-5.958 -1.13,-15.475 0.98,-20.821 z"
     id="path8" />
  <path
     fill="#000000"
     d="m 1718.0015,305.434 5.04,0.629 c 6.43,4.559 4.38,13.724 0.15,19.275 -3.25,2.238 -6.2,1.647 -10.28,1.599 -11.9,-0.292 -8.39,-11.926 -7.7,-20.778 z"
     id="path9" />
  <path
     fill="#000000"
     d="m 1610.6015,305.936 c 6.84,-0.344 13.35,-0.129 20.18,0.024 0.5,6.044 0.6,14.249 -0.63,20.147 -7.01,0.856 -14.42,2.695 -19.49,-2.759 -2.18,-5.319 -0.83,-11.597 -0.06,-17.412 z"
     id="path10" />
  <path
     fill="#000000"
     d="m 1659.7415,397.156 c 4.75,-0.181 9.76,-0.796 14.36,0.754 7.74,2.608 6.11,14.125 2.83,20.048 -7.49,0.508 -11.49,0.421 -19.02,0.002 -0.38,-6.936 -1.51,-14.799 1.83,-20.804 z"
     id="path11" />
  <path
     fill="#000000"
     d="m 1706.6515,351.31 c 5,-0.328 10.78,-1.136 15.49,0.074 5.18,4.387 5.13,15.705 1.87,20.658 -4.71,0.299 -9.91,0.991 -14.51,-0.476 -8.03,-2.559 -6.2,-14.25 -2.85,-20.256 z"
     id="path12" />
  <path
     fill="#000000"
     d="m 1610.8315,260.912 c 7.37,-0.236 14.58,-2.05 19.75,3.844 1.92,4.922 0.51,11.388 -0.55,16.611 -7.15,0.546 -12.63,0.272 -19.79,-0.001 -0.56,-6.384 -0.93,-14.254 0.59,-20.454 z"
     id="path13" />
  <path
     fill="#000000"
     d="m 1752.7915,305.975 c 7.4,-0.42 12.98,-0.234 20.41,0.048 0.38,6.269 0.48,14.09 -0.27,20.28 -7.99,0.492 -12.14,0.455 -20.13,-0.032 -0.34,-7.633 -0.4,-12.685 -0.01,-20.296 z"
     id="path14" />
  <path
     fill="#000000"
     d="m 1659.7615,351.161 c 4.74,-0.182 9.74,-0.797 14.34,0.751 7.78,2.619 6.11,14.196 2.79,20.093 -6.7,0.242 -12.39,0.086 -19.09,-0.141 -0.3,-6.855 -1.42,-14.922 1.96,-20.703 z"
     id="path15" />
  <path
     fill="#000000"
     d="m 1611.7115,351.363 c 4.07,-0.225 12.87,-1.238 16.24,0.543 4.76,2.514 3.76,16.078 1.14,20.1 -4.4,0.211 -9.93,0.795 -14.16,-0.489 -8.45,-2.565 -6.33,-13.857 -3.22,-20.154 z"
     id="path16" />
  <path
     fill="#000000"
     d="m 1705.8015,260.88 c 6.68,-0.283 13.04,-0.003 19.72,0.214 0.3,5.461 1.36,15.853 -1.18,20.324 -7.18,0.447 -11.85,0.164 -19.07,-0.269 -0.65,-6.388 -1.19,-14.053 0.53,-20.269 z"
     id="path17" />
  <path
     fill="#000000"
     d="m 1753.6315,260.827 c 6.5,-0.187 12.92,0.07 19.42,0.258 0.43,6.162 1.41,14.786 -1.07,20.288 -7.13,0.443 -12.12,0.238 -19.28,-0.085 -0.31,-6.307 -0.92,-14.507 0.93,-20.461 z"
     id="path18" />
  <path
     fill="#000000"
     d="m 1658.9215,260.934 c 6.5,-0.253 12.99,0.018 19.49,0.193 0.28,5.602 1.18,15.384 -1.15,20.17 -7.26,0.55 -14.1,2.469 -19.13,-3.54 -1.88,-4.878 -0.58,-11.906 0.79,-16.823 z"
     id="path19" />
  <path
     fill="#000000"
     d="m 1562.7615,306.003 c 7.32,-0.524 12.55,-0.274 19.91,0.044 0.5,6.513 0.87,13.758 -0.59,20.114 -7.92,0.713 -11.39,0.632 -19.37,0.174 -0.37,-7.806 -0.56,-12.606 0.05,-20.332 z"
     id="path20" />
  <path
     fill="#000000"
     d="m 1564.2115,351.237 c 4.93,-0.234 10.24,-0.839 14.97,0.229 5.41,4.406 5.34,15.348 2,20.598 -6.08,0.278 -12.29,0.082 -18.38,-0.018 -0.38,-5.662 -1.81,-16.37 1.41,-20.809 z"
     id="path21" />
  <path
     fill="#000000"
     d="m 1562.9115,260.954 c 6.33,-0.301 13.27,-0.067 19.66,0.024 0.55,6.843 0.9,13.712 -0.55,20.438 -7.44,0.435 -11.95,0.338 -19.42,-0.036 -0.26,-7.588 -0.59,-12.921 0.31,-20.426 z"
     id="path22" />
  <path
     fill="#6610fc"
     d="m 244.77253,620.018 c 54.316,54.5 108.293,109.337 161.928,164.508 2.019,51.202 0.185,112.842 0.225,165.066 l 0.077,330.498 -0.12,108.38 c -0.051,51.31 -7.39,81.18 33.809,118.58 45.917,41.69 88.584,90.84 134.768,132.45 l 296.701,0.03 149.51597,0.12 c 28.465,0.03 59.725,0.66 87.995,-0.11 l 188.44,196.57 -608.84997,-0.01 -165.221,0.04 c -32.213,0 -72.757,2.16 -104.204,-3.3 -87.309,-15.14 -160.049,-91.38 -172.566,-178.88 -4.906,-34.29 -2.624,-77.4 -2.607,-112.45 l 0.018,-199.23 z"
     id="path23" />
  <path
     fill="#000000"
     d="m 486.41453,1745.29 c 3.586,-0.07 13.471,-0.97 15.578,1.84 3.672,4.9 3.822,14.53 -0.55,19.07 -14.486,0.48 -21.307,3.08 -18.619,-15.74 0.474,-3.32 1.074,-3.25 3.591,-5.17 z"
     id="path24" />
  <path
     fill="#000000"
     d="m 389.22653,1610.4 c 3.177,-0.15 7.099,-0.4 10.244,-0.11 10.114,0.9 10.139,17.03 3.385,21.26 -5.805,0.24 -13.513,1.47 -16.981,-4.11 -2.945,-4.75 -1.562,-14.1 3.352,-17.04 z"
     id="path25" />
  <path
     fill="#000000"
     d="m 485.75953,1610.4 c 5.366,-0.19 9.688,-0.69 14.903,0.57 5.078,4.35 4.698,15.47 0.832,20.35 -5.052,0.26 -11.348,1.21 -15.733,-0.68 -4.608,-4.36 -4.229,-15.81 -0.002,-20.24 z"
     id="path26" />
  <path
     fill="#000000"
     d="m 484.50553,1656.1 c 6.273,-0.31 18.605,-2 20.7,7.42 0.602,2.7 -1.416,10.29 -2.809,12.72 -5.21,0.43 -10.765,1.45 -15.811,-0.75 -6.736,-2.93 -5.07,-13.9 -2.08,-19.39 z"
     id="path27" />
  <path
     fill="#000000"
     d="m 342.43053,1745.44 1.122,-0.04 1.86,-0.04 c 12.558,-0.31 15.588,6.47 11.459,18.28 -0.815,2.33 -3.136,2.43 -5.235,2.91 -13.666,0.39 -20.1,-3.77 -13.683,-19.25 0.565,-1.36 2.911,-1.46 4.477,-1.86 z"
     id="path28" />
  <path
     fill="#000000"
     d="m 386.39153,1565.06 c 7.436,-0.38 15.096,-2.21 20.119,4.29 1.589,4.45 0.41,11.66 -1.308,15.99 -7.226,0.45 -14.203,2.3 -19.195,-3.6 -1.831,-4.81 -0.597,-11.67 0.384,-16.68 z"
     id="path29" />
  <path
     fill="#000000"
     d="m 484.12953,1701.07 c 2.969,-0.19 5.941,-0.34 8.915,-0.46 4.982,-0.17 6.308,-0.22 9.953,3.16 2.667,5.35 1.097,11.11 0.289,17.17 -6.866,0.3 -13.372,0.14 -20.236,0.01 -0.436,-6.56 -1.195,-13.75 1.079,-19.88 z"
     id="path30" />
  <path
     fill="#000000"
     d="m 389.45853,1745.31 c 5.699,-0.03 11.067,0.47 16.739,0.9 0.352,6.56 2.085,15.44 -2.605,20.21 -6.137,0.1 -11.739,-0.26 -17.858,-0.6 -0.447,-7.21 -2.813,-16.52 3.724,-20.51 z"
     id="path31" />
  <path
     fill="#000000"
     d="m 340.50253,1610.47 c 2.698,-0.17 6.41,-0.55 9.003,-0.32 11.07,0.98 11.012,15.96 4.489,21.49 -6.815,0.09 -10.206,-0.19 -16.975,-0.96 -0.559,-7.06 -3.022,-16.26 3.483,-20.21 z"
     id="path32" />
  <path
     fill="#000000"
     d="m 437.63753,1610.4 c 5.366,-0.18 9.805,-0.71 14.964,0.69 4.135,4.33 4.16,16.02 -0.045,20.03 -2.677,0.16 -15.687,1.54 -16.918,-1.28 -2.12,-4.85 -2.709,-15.87 1.999,-19.44 z"
     id="path33" />
  <path
     fill="#000000"
     d="m 387.63053,1656.16 c 4.964,-0.28 10.824,-1.08 15.443,0.25 5.186,4.77 5.055,14.75 1.275,20 -7.765,0.42 -10.879,0.33 -18.622,-0.43 -0.368,-6.54 -1.583,-14.43 1.904,-19.82 z"
     id="path34" />
  <path
     fill="#000000"
     d="m 437.77453,1745.44 c 3.952,-0.09 8.917,-0.52 12.672,0.8 8.181,2.88 6.592,14.05 2.916,20.02 -6.656,0.19 -12.047,-0.02 -18.705,-0.35 -0.249,-6.76 -2.108,-16.03 3.117,-20.47 z"
     id="path35" />
  <path
     fill="#000000"
     d="m 338.61053,1656.07 c 5.014,-0.22 10.211,-0.93 15.025,1.16 6.881,2.98 5.455,14.04 2.061,19.49 -4.762,0.21 -10.679,0.92 -15.161,-1.08 -7.179,-3.2 -5.148,-13.79 -1.925,-19.57 z"
     id="path36" />
  <path
     fill="#000000"
     d="m 337.68653,1565.03 c 7.266,-0.22 14.893,-1.88 19.788,4.36 1.645,4.47 0.337,11.75 -1.479,16.05 -7.261,0.45 -13.883,2.26 -18.904,-3.71 -1.921,-4.87 -0.589,-11.7 0.595,-16.7 z"
     id="path37" />
  <path
     fill="#000000"
     d="m 385.99953,1701.08 c 20.652,-1.35 21.986,-1.19 19.873,19.65 -8.038,0.54 -12.155,0.59 -20.189,0.14 -0.41,-6.82 -0.592,-13.01 0.316,-19.79 z"
     id="path38" />
  <path
     fill="#000000"
     d="m 435.69253,1565.01 c 16.059,-0.6 25.449,0.34 18.24,20.37 -7.451,0.53 -13.857,2.45 -19.016,-3.57 -1.793,-4.76 -0.565,-11.95 0.776,-16.8 z"
     id="path39" />
  <path
     fill="#000000"
     d="m 436.54153,1656.11 c 4.901,-0.23 9.895,-0.95 14.544,0.92 7.908,3.19 5.547,13.46 2.22,19.47 -4.83,0.3 -9.483,1.05 -14.213,-0.51 -7.81,-2.58 -6.347,-14.25 -2.551,-19.88 z"
     id="path40" />
  <path
     fill="#000000"
     d="m 337.70553,1700.99 c 7.048,-0.25 14.18,-2.06 19.167,3.43 1.986,4.94 0.527,11.34 -0.504,16.57 -6.911,0.33 -12.393,0.13 -19.318,-0.15 -0.596,-6.53 -1.008,-13.49 0.655,-19.85 z"
     id="path41" />
  <path
     fill="#000000"
     d="m 435.66153,1701.04 c 7.305,-0.35 13.561,-2.12 18.986,3.32 2.198,4.86 0.845,11.43 -0.39,16.54 -7.121,0.41 -12.363,0.27 -19.508,0.01 -0.437,-6.56 -0.722,-13.5 0.912,-19.87 z"
     id="path42" />
  <path
     fill="#000000"
     d="m 444.39453,605.909 0.099,-101.095 c -0.024,-21.217 -4.246,-56.922 11.203,-72.67 16.457,-16.776 48.794,-12.881 71.001,-12.886 l 81.405,0.013 253.676,0.008 475.92297,-0.028 c 79.96,0.003 160.34,-0.102 240.35,0.083 14.74,0.034 23.7,2.298 34.45,13.067 14.32,14.332 11.75,30.429 11.95,48.827 0.12,10.954 -0.02,22.196 -0.03,33.273 l 0.01,126.227 0.08,792.282 c -0.32,64.57 -50.95,56.66 -97.42,56.61 l -93.67,-0.1 -299.74,-0.13 -426.05697,-0.02 -136.629,0.06 c -25.827,0.03 -51.749,0.27 -77.598,-0.29 -14.802,0.11 -28.845,-5.51 -38.914,-16.74 -15.936,-17.77 -12.067,-50.97 -12.044,-73.78 l 0.084,-75 -0.013,-243.64 0.017,-291.249 c -0.017,-58.541 -1.615,-125.03 1.867,-182.822 z"
     id="path43" />
  <path
     fill="#d1f320"
     d="m 444.39453,605.909 0.099,-101.095 c -0.024,-21.217 -4.246,-56.922 11.203,-72.67 16.457,-16.776 48.794,-12.881 71.001,-12.886 l 81.405,0.013 253.676,0.008 475.92297,-0.028 c 79.96,0.003 160.34,-0.102 240.35,0.083 14.74,0.034 23.7,2.298 34.45,13.067 14.32,14.332 11.75,30.429 11.95,48.827 0.12,10.954 -0.02,22.196 -0.03,33.273 l 0.01,126.227 -13.88,0.031 c -20.23,-0.753 -43.43,-0.266 -63.85,-0.273 l -113.48,-0.054 -350.19,0.01 -413.45897,0.022 c -68.588,0.013 -143.161,-1.523 -211.106,0.237 -4.522,0.08 -9.477,-0.205 -14.032,-0.37 0.152,-11.648 0.28,-22.768 -0.04,-34.422 z"
     id="path44" />
  <path
     fill="#000000"
     d="m 522.34353,492.814 c 21.282,-1.113 52.674,-0.418 74.337,0.109 0.817,21.714 -0.268,45.817 0.175,67.69 0.078,3.85 -0.021,4.912 -2.161,6.862 -24.013,-0.052 -48.376,0.477 -72.341,-0.077 -1.223,-18.31 -0.751,-55.85 -0.01,-74.584 z"
     id="path45" />
  <path
     fill="#000000"
     d="m 818.73053,492.86 c 23.339,-0.645 50.972,-0.574 74.321,-0.042 0.457,22.186 0.729,52.433 -0.357,74.255 -22.598,0.966 -51.449,0.886 -74.15,0.338 -0.531,-22.296 -0.988,-52.564 0.186,-74.551 z"
     id="path46" />
  <path
     fill="#000000"
     d="m 670.98253,492.973 c 23.141,-0.999 50.943,-0.6 74.144,-0.079 0.782,13.985 0.6,62.064 -0.492,74.361 -20.294,1.274 -53.042,0.561 -73.993,0.242 -0.106,-22.973 -0.842,-51.907 0.341,-74.524 z"
     id="path47" />
  <path
     fill="url(#svgi_r_2p___Gradient1)"
     d="m 444.39453,605.909 c 0.32,11.654 0.192,22.774 0.04,34.422 4.555,0.165 9.51,0.45 14.032,0.37 l 0.042,550.019 -0.033,171.16 -0.029,53.5 c -10e-4,9.41 -0.149,19.53 0.29,28.83 0.319,6.78 5.27,15.07 9.992,19.72 5.032,4.96 12.888,9.76 20.155,10 15.928,0.54 32.249,0.38 48.193,0.38 l 87.109,-0.04 266.64,-0.02 474.88597,-0.12 c 68.73,-0.01 137.51,0.02 206.24,0.07 10.73,0.01 19.95,-2.27 27.85,-9.9 5.37,-5.18 9.51,-12.85 10.06,-20.34 0.68,-9.08 0.49,-19.53 0.49,-28.72 l -0.03,-48.81 -0.1,-164.12 0.33,-561.551 13.88,-0.031 0.08,792.282 c -0.32,64.57 -50.95,56.66 -97.42,56.61 l -93.67,-0.1 -299.74,-0.13 -426.05697,-0.02 -136.629,0.06 c -25.827,0.03 -51.749,0.27 -77.598,-0.29 -14.802,0.11 -28.845,-5.51 -38.914,-16.74 -15.936,-17.77 -12.067,-50.97 -12.044,-73.78 l 0.084,-75 -0.013,-243.64 0.017,-291.249 c -0.017,-58.541 -1.615,-125.03 1.867,-182.822 z"
     id="path48"
     style="fill:url(#svgi_r_2p___Gradient1)" />
  <path
     fill="#e5e5e3"
     d="m 637.63253,781.383 c 7.429,3.765 26.459,17.725 34.221,23.175 l 65.432,45.941 224.501,157.141 0.016,56.48 c -24.924,17 -51.24,36.83 -75.907,54.69 l -178.705,130.54 -69.492,50.25 c -0.522,-37.84 -0.127,-76.5 -0.135,-114.39 l 205.143,-149.19 c -17.058,-12.6 -37.453,-25.68 -55.163,-38.035 l -149.972,-104.106 z"
     id="path49" />
  <path
     fill="#e5e5e3"
     d="m 962.00653,1230.28 c 38.55997,-0.91 81.16497,-0.08 120.04497,-0.08 l 196.3,0.17 -0.13,73.71 -316.23897,0.04 z"
     id="path50" />
</svg>
