<svg version="1.1" xmlns="http://www.w3.org/2000/svg" style="display: block;" viewBox="148 122.667 1760 1812" width="1760" height="1812" preserveAspectRatio="none">
<defs>
	<linearGradient id="svgi_r_2p___Gradient1" gradientUnits="userSpaceOnUse" x1="1648.8" y1="1260.88" x2="347.11" y2="853.573">
		<stop class="stop0" offset="0" stop-opacity="1" stop-color="rgb(71,70,71)"></stop>
		<stop class="stop1" offset="1" stop-opacity="1" stop-color="rgb(98,97,97)"></stop>
	</linearGradient>
</defs>
<path transform="translate(0,0)" fill="rgb(0,0,0)" d="M 410.589 158.402 C 415.141 157.839 421.383 157.931 426.061 157.921 C 446.237 157.879 466.416 157.943 486.593 157.962 L 632.519 157.978 L 1100.3 157.985 L 1474.45 157.995 L 1582.82 157.895 C 1606.14 157.874 1636.6 158.053 1659.72 160.226 C 1704.6 164.447 1753.69 186.499 1788.04 215.829 C 1836.39 257.12 1868.53 319.172 1872.11 383.027 C 1872.67 393.064 1872.08 405.594 1872.04 415.99 L 1871.98 481.477 L 1873.02 650.484 L 1871.98 1207.59 L 1871.97 1536.56 L 1873.04 1630.95 C 1873.14 1653.07 1873.98 1671.5 1870.62 1693.34 C 1863.33 1740.79 1843.08 1782.95 1810.11 1817.77 C 1800.26 1828.17 1786.45 1843.27 1775.05 1851.67 C 1741.98 1875.99 1691.96 1895.79 1650.88 1898 L 777.136 1898.84 C 692.443 1899.3 607.749 1899.02 523.061 1897.98 L 447.88 1897.99 C 429.902 1898 409.542 1898.9 392.12 1896.15 C 302.845 1882.15 229.967 1823.47 199.591 1738.35 C 180.326 1684.37 184.836 1651.9 184.974 1596.72 L 184.762 1453.82 L 183.93 993.756 L 184.722 573.123 L 184.873 440.917 C 184.903 420.9 183.112 388.102 185.937 369.138 C 203.552 250.903 292.988 170.565 410.589 158.402 z"></path>
<path transform="translate(0,0)" fill="rgb(0,0,0)" d="M 213.181 620.018 L 213.14 475.177 C 213.133 437.198 210.539 385.569 219.312 350.01 C 228.762 311.737 248.546 276.797 276.503 249.004 C 308.455 217.255 349.514 196.264 393.96 188.954 C 415.432 185.512 436.593 186.132 458.231 186.129 L 528.73 186.157 L 771.119 186.175 L 1624.98 186.144 C 1685.53 186.489 1739.06 205.776 1782.08 249.5 C 1813.7 281.544 1834.62 322.591 1841.98 367.004 C 1845.13 386.878 1844.66 409.523 1844.66 429.819 L 1844.67 500.457 L 1844.64 753.886 L 1844.66 1620.35 C 1844.1 1679.73 1822.27 1733.21 1779.72 1775.02 C 1751.25 1802.93 1715.61 1822.41 1676.75 1831.32 C 1649.3 1837.54 1620.24 1836.26 1592.13 1836.24 L 1511.49 1836.2 C 1431.31 1836.17 1349.54 1837.1 1269.52 1836.18 C 1268.52 1836.17 1267.52 1836.15 1266.52 1836.11 L 657.67 1836.1 L 492.449 1836.14 C 460.236 1836.14 419.692 1838.3 388.245 1832.84 C 300.936 1817.7 228.196 1741.46 215.679 1653.96 C 210.773 1619.67 213.055 1576.56 213.072 1541.51 L 213.09 1342.28 L 213.181 620.018 z"></path>
<path transform="translate(0,0)" fill="rgb(229,229,227)" d="M 213.181 620.018 L 213.14 475.177 C 213.133 437.198 210.539 385.569 219.312 350.01 C 228.762 311.737 248.546 276.797 276.503 249.004 C 308.455 217.255 349.514 196.264 393.96 188.954 C 415.432 185.512 436.593 186.132 458.231 186.129 L 528.73 186.157 L 771.119 186.175 L 1624.98 186.144 C 1685.53 186.489 1739.06 205.776 1782.08 249.5 C 1813.7 281.544 1834.62 322.591 1841.98 367.004 C 1845.13 386.878 1844.66 409.523 1844.66 429.819 L 1844.67 500.457 L 1844.64 753.886 L 1844.66 1620.35 C 1844.1 1679.73 1822.27 1733.21 1779.72 1775.02 C 1751.25 1802.93 1715.61 1822.41 1676.75 1831.32 C 1649.3 1837.54 1620.24 1836.26 1592.13 1836.24 L 1511.49 1836.2 C 1431.31 1836.17 1349.54 1837.1 1269.52 1836.18 C 1268.52 1836.17 1267.52 1836.15 1266.52 1836.11 L 1078.08 1639.54 L 1485.79 1639.55 L 1607.44 1639.56 C 1629.17 1639.57 1656.08 1640.31 1677.36 1638.97 L 1742 1573.03 L 1742 540.128 C 1709.77 506.738 1675.67 473.918 1642.75 441.107 C 1611.7 410.148 1592.55 382.59 1544.96 382.586 C 1465.23 382.581 1385.15 382.592 1305.26 382.584 L 820.395 382.601 L 566.235 382.627 L 490.997 382.502 C 455.645 382.445 427.16 378.536 399.601 405.291 C 388.271 416.167 380.469 430.195 377.206 445.558 C 374.556 458.421 375.231 477.898 375.233 491.589 L 375.303 551.027 C 375.429 627.809 376.314 707.904 375.109 784.526 C 321.474 729.355 267.497 674.518 213.181 620.018 z"></path>
<path transform="translate(0,0)" fill="rgb(0,0,0)" d="M 1722.12 397.158 C 1726.69 397.016 1732.26 396.58 1736.68 397.657 C 1745.27 399.751 1743.31 412.06 1740.38 418.19 C 1723.11 419.505 1715.01 416.641 1722.12 397.158 z"></path>
<path transform="translate(0,0)" fill="rgb(0,0,0)" d="M 1675.2 397.234 C 1680.18 396.965 1686.43 396.102 1690.93 397.647 C 1695.92 401.978 1695.34 413.256 1691.91 418.304 C 1687.33 418.606 1682.37 419.356 1677.91 417.867 C 1669.77 415.154 1671.53 403.346 1675.2 397.234 z"></path>
<path transform="translate(0,0)" fill="rgb(0,0,0)" d="M 1629.6 305.357 C 1644.43 304.746 1652.29 306.288 1646.15 324.29 C 1645.61 325.869 1644.43 325.709 1642.76 326.298 C 1630.82 327.388 1622.7 327.23 1625.74 311.976 C 1626.59 307.736 1626.02 307.792 1629.6 305.357 z"></path>
<path transform="translate(0,0)" fill="rgb(0,0,0)" d="M 1722.12 351.209 C 1729.78 350.971 1735.82 349.079 1741.31 354.807 C 1743.34 359.435 1742.04 366.994 1741.01 371.926 C 1733.74 372.375 1728.45 372.274 1721.14 372.03 C 1720.83 366.072 1720.01 356.555 1722.12 351.209 z"></path>
<path transform="translate(0,0)" fill="rgb(0,0,0)" d="M 1686.41 305.434 L 1691.45 306.063 C 1697.88 310.622 1695.83 319.787 1691.6 325.338 C 1688.35 327.576 1685.4 326.985 1681.32 326.937 C 1669.42 326.645 1672.93 315.011 1673.62 306.159 L 1686.41 305.434 z"></path>
<path transform="translate(0,0)" fill="rgb(0,0,0)" d="M 1579.01 305.936 C 1585.85 305.592 1592.36 305.807 1599.19 305.96 C 1599.69 312.004 1599.79 320.209 1598.56 326.107 C 1591.55 326.963 1584.14 328.802 1579.07 323.348 C 1576.89 318.029 1578.24 311.751 1579.01 305.936 z"></path>
<path transform="translate(0,0)" fill="rgb(0,0,0)" d="M 1628.15 397.156 C 1632.9 396.975 1637.91 396.36 1642.51 397.91 C 1650.25 400.518 1648.62 412.035 1645.34 417.958 C 1637.85 418.466 1633.85 418.379 1626.32 417.96 C 1625.94 411.024 1624.81 403.161 1628.15 397.156 z"></path>
<path transform="translate(0,0)" fill="rgb(0,0,0)" d="M 1675.06 351.31 C 1680.06 350.982 1685.84 350.174 1690.55 351.384 C 1695.73 355.771 1695.68 367.089 1692.42 372.042 C 1687.71 372.341 1682.51 373.033 1677.91 371.566 C 1669.88 369.007 1671.71 357.316 1675.06 351.31 z"></path>
<path transform="translate(0,0)" fill="rgb(0,0,0)" d="M 1579.24 260.912 C 1586.61 260.676 1593.82 258.862 1598.99 264.756 C 1600.91 269.678 1599.5 276.144 1598.44 281.367 C 1591.29 281.913 1585.81 281.639 1578.65 281.366 C 1578.09 274.982 1577.72 267.112 1579.24 260.912 z"></path>
<path transform="translate(0,0)" fill="rgb(0,0,0)" d="M 1721.2 305.975 C 1728.6 305.555 1734.18 305.741 1741.61 306.023 C 1741.99 312.292 1742.09 320.113 1741.34 326.303 C 1733.35 326.795 1729.2 326.758 1721.21 326.271 C 1720.87 318.638 1720.81 313.586 1721.2 305.975 z"></path>
<path transform="translate(0,0)" fill="rgb(0,0,0)" d="M 1628.17 351.161 C 1632.91 350.979 1637.91 350.364 1642.51 351.912 C 1650.29 354.531 1648.62 366.108 1645.3 372.005 C 1638.6 372.247 1632.91 372.091 1626.21 371.864 C 1625.91 365.009 1624.79 356.942 1628.17 351.161 z"></path>
<path transform="translate(0,0)" fill="rgb(0,0,0)" d="M 1580.12 351.363 C 1584.19 351.138 1592.99 350.125 1596.36 351.906 C 1601.12 354.42 1600.12 367.984 1597.5 372.006 C 1593.1 372.217 1587.57 372.801 1583.34 371.517 C 1574.89 368.952 1577.01 357.66 1580.12 351.363 z"></path>
<path transform="translate(0,0)" fill="rgb(0,0,0)" d="M 1674.21 260.88 C 1680.89 260.597 1687.25 260.877 1693.93 261.094 C 1694.23 266.555 1695.29 276.947 1692.75 281.418 C 1685.57 281.865 1680.9 281.582 1673.68 281.149 C 1673.03 274.761 1672.49 267.096 1674.21 260.88 z"></path>
<path transform="translate(0,0)" fill="rgb(0,0,0)" d="M 1722.04 260.827 C 1728.54 260.64 1734.96 260.897 1741.46 261.085 C 1741.89 267.247 1742.87 275.871 1740.39 281.373 C 1733.26 281.816 1728.27 281.611 1721.11 281.288 C 1720.8 274.981 1720.19 266.781 1722.04 260.827 z"></path>
<path transform="translate(0,0)" fill="rgb(0,0,0)" d="M 1627.33 260.934 C 1633.83 260.681 1640.32 260.952 1646.82 261.127 C 1647.1 266.729 1648 276.511 1645.67 281.297 C 1638.41 281.847 1631.57 283.766 1626.54 277.757 C 1624.66 272.879 1625.96 265.851 1627.33 260.934 z"></path>
<path transform="translate(0,0)" fill="rgb(0,0,0)" d="M 1531.17 306.003 C 1538.49 305.479 1543.72 305.729 1551.08 306.047 C 1551.58 312.56 1551.95 319.805 1550.49 326.161 C 1542.57 326.874 1539.1 326.793 1531.12 326.335 C 1530.75 318.529 1530.56 313.729 1531.17 306.003 z"></path>
<path transform="translate(0,0)" fill="rgb(0,0,0)" d="M 1532.62 351.237 C 1537.55 351.003 1542.86 350.398 1547.59 351.466 C 1553 355.872 1552.93 366.814 1549.59 372.064 C 1543.51 372.342 1537.3 372.146 1531.21 372.046 C 1530.83 366.384 1529.4 355.676 1532.62 351.237 z"></path>
<path transform="translate(0,0)" fill="rgb(0,0,0)" d="M 1531.32 260.954 C 1537.65 260.653 1544.59 260.887 1550.98 260.978 C 1551.53 267.821 1551.88 274.69 1550.43 281.416 C 1542.99 281.851 1538.48 281.754 1531.01 281.38 C 1530.75 273.792 1530.42 268.459 1531.32 260.954 z"></path>
<path transform="translate(0,0)" fill="rgb(102,16,252)" d="M 213.181 620.018 C 267.497 674.518 321.474 729.355 375.109 784.526 C 377.128 835.728 375.294 897.368 375.334 949.592 L 375.411 1280.09 L 375.291 1388.47 C 375.24 1439.78 367.901 1469.65 409.1 1507.05 C 455.017 1548.74 497.684 1597.89 543.868 1639.5 L 840.569 1639.53 L 990.085 1639.65 C 1018.55 1639.68 1049.81 1640.31 1078.08 1639.54 L 1266.52 1836.11 L 657.67 1836.1 L 492.449 1836.14 C 460.236 1836.14 419.692 1838.3 388.245 1832.84 C 300.936 1817.7 228.196 1741.46 215.679 1653.96 C 210.773 1619.67 213.055 1576.56 213.072 1541.51 L 213.09 1342.28 L 213.181 620.018 z"></path>
<path transform="translate(0,0)" fill="rgb(0,0,0)" d="M 454.823 1745.29 C 458.409 1745.22 468.294 1744.32 470.401 1747.13 C 474.073 1752.03 474.223 1761.66 469.851 1766.2 C 455.365 1766.68 448.544 1769.28 451.232 1750.46 C 451.706 1747.14 452.306 1747.21 454.823 1745.29 z"></path>
<path transform="translate(0,0)" fill="rgb(0,0,0)" d="M 357.635 1610.4 C 360.812 1610.25 364.734 1610 367.879 1610.29 C 377.993 1611.19 378.018 1627.32 371.264 1631.55 C 365.459 1631.79 357.751 1633.02 354.283 1627.44 C 351.338 1622.69 352.721 1613.34 357.635 1610.4 z"></path>
<path transform="translate(0,0)" fill="rgb(0,0,0)" d="M 454.168 1610.4 C 459.534 1610.21 463.856 1609.71 469.071 1610.97 C 474.149 1615.32 473.769 1626.44 469.903 1631.32 C 464.851 1631.58 458.555 1632.53 454.17 1630.64 C 449.562 1626.28 449.941 1614.83 454.168 1610.4 z"></path>
<path transform="translate(0,0)" fill="rgb(0,0,0)" d="M 452.914 1656.1 C 459.187 1655.79 471.519 1654.1 473.614 1663.52 C 474.216 1666.22 472.198 1673.81 470.805 1676.24 C 465.595 1676.67 460.04 1677.69 454.994 1675.49 C 448.258 1672.56 449.924 1661.59 452.914 1656.1 z"></path>
<path transform="translate(0,0)" fill="rgb(0,0,0)" d="M 310.839 1745.44 L 311.961 1745.4 L 313.821 1745.36 C 326.379 1745.05 329.409 1751.83 325.28 1763.64 C 324.465 1765.97 322.144 1766.07 320.045 1766.55 C 306.379 1766.94 299.945 1762.78 306.362 1747.3 C 306.927 1745.94 309.273 1745.84 310.839 1745.44 z"></path>
<path transform="translate(0,0)" fill="rgb(0,0,0)" d="M 354.8 1565.06 C 362.236 1564.68 369.896 1562.85 374.919 1569.35 C 376.508 1573.8 375.329 1581.01 373.611 1585.34 C 366.385 1585.79 359.408 1587.64 354.416 1581.74 C 352.585 1576.93 353.819 1570.07 354.8 1565.06 z"></path>
<path transform="translate(0,0)" fill="rgb(0,0,0)" d="M 452.538 1701.07 C 455.507 1700.88 458.479 1700.73 461.453 1700.61 C 466.435 1700.44 467.761 1700.39 471.406 1703.77 C 474.073 1709.12 472.503 1714.88 471.695 1720.94 C 464.829 1721.24 458.323 1721.08 451.459 1720.95 C 451.023 1714.39 450.264 1707.2 452.538 1701.07 z"></path>
<path transform="translate(0,0)" fill="rgb(0,0,0)" d="M 357.867 1745.31 C 363.566 1745.28 368.934 1745.78 374.606 1746.21 C 374.958 1752.77 376.691 1761.65 372.001 1766.42 C 365.864 1766.52 360.262 1766.16 354.143 1765.82 C 353.696 1758.61 351.33 1749.3 357.867 1745.31 z"></path>
<path transform="translate(0,0)" fill="rgb(0,0,0)" d="M 308.911 1610.47 C 311.609 1610.3 315.321 1609.92 317.914 1610.15 C 328.984 1611.13 328.926 1626.11 322.403 1631.64 C 315.588 1631.73 312.197 1631.45 305.428 1630.68 C 304.869 1623.62 302.406 1614.42 308.911 1610.47 z"></path>
<path transform="translate(0,0)" fill="rgb(0,0,0)" d="M 406.046 1610.4 C 411.412 1610.22 415.851 1609.69 421.01 1611.09 C 425.145 1615.42 425.17 1627.11 420.965 1631.12 C 418.288 1631.28 405.278 1632.66 404.047 1629.84 C 401.927 1624.99 401.338 1613.97 406.046 1610.4 z"></path>
<path transform="translate(0,0)" fill="rgb(0,0,0)" d="M 356.039 1656.16 C 361.003 1655.88 366.863 1655.08 371.482 1656.41 C 376.668 1661.18 376.537 1671.16 372.757 1676.41 C 364.992 1676.83 361.878 1676.74 354.135 1675.98 C 353.767 1669.44 352.552 1661.55 356.039 1656.16 z"></path>
<path transform="translate(0,0)" fill="rgb(0,0,0)" d="M 406.183 1745.44 C 410.135 1745.35 415.1 1744.92 418.855 1746.24 C 427.036 1749.12 425.447 1760.29 421.771 1766.26 C 415.115 1766.45 409.724 1766.24 403.066 1765.91 C 402.817 1759.15 400.958 1749.88 406.183 1745.44 z"></path>
<path transform="translate(0,0)" fill="rgb(0,0,0)" d="M 307.019 1656.07 C 312.033 1655.85 317.23 1655.14 322.044 1657.23 C 328.925 1660.21 327.499 1671.27 324.105 1676.72 C 319.343 1676.93 313.426 1677.64 308.944 1675.64 C 301.765 1672.44 303.796 1661.85 307.019 1656.07 z"></path>
<path transform="translate(0,0)" fill="rgb(0,0,0)" d="M 306.095 1565.03 C 313.361 1564.81 320.988 1563.15 325.883 1569.39 C 327.528 1573.86 326.22 1581.14 324.404 1585.44 C 317.143 1585.89 310.521 1587.7 305.5 1581.73 C 303.579 1576.86 304.911 1570.03 306.095 1565.03 z"></path>
<path transform="translate(0,0)" fill="rgb(0,0,0)" d="M 354.408 1701.08 C 375.06 1699.73 376.394 1699.89 374.281 1720.73 C 366.243 1721.27 362.126 1721.32 354.092 1720.87 C 353.682 1714.05 353.5 1707.86 354.408 1701.08 z"></path>
<path transform="translate(0,0)" fill="rgb(0,0,0)" d="M 404.101 1565.01 C 420.16 1564.41 429.55 1565.35 422.341 1585.38 C 414.89 1585.91 408.484 1587.83 403.325 1581.81 C 401.532 1577.05 402.76 1569.86 404.101 1565.01 z"></path>
<path transform="translate(0,0)" fill="rgb(0,0,0)" d="M 404.95 1656.11 C 409.851 1655.88 414.845 1655.16 419.494 1657.03 C 427.402 1660.22 425.041 1670.49 421.714 1676.5 C 416.884 1676.8 412.231 1677.55 407.501 1675.99 C 399.691 1673.41 401.154 1661.74 404.95 1656.11 z"></path>
<path transform="translate(0,0)" fill="rgb(0,0,0)" d="M 306.114 1700.99 C 313.162 1700.74 320.294 1698.93 325.281 1704.42 C 327.267 1709.36 325.808 1715.76 324.777 1720.99 C 317.866 1721.32 312.384 1721.12 305.459 1720.84 C 304.863 1714.31 304.451 1707.35 306.114 1700.99 z"></path>
<path transform="translate(0,0)" fill="rgb(0,0,0)" d="M 404.07 1701.04 C 411.375 1700.69 417.631 1698.92 423.056 1704.36 C 425.254 1709.22 423.901 1715.79 422.666 1720.9 C 415.545 1721.31 410.303 1721.17 403.158 1720.91 C 402.721 1714.35 402.436 1707.41 404.07 1701.04 z"></path>
<path transform="translate(0,0)" fill="rgb(0,0,0)" d="M 412.803 605.909 L 412.902 504.814 C 412.878 483.597 408.656 447.892 424.105 432.144 C 440.562 415.368 472.899 419.263 495.106 419.258 L 576.511 419.271 L 830.187 419.279 L 1306.11 419.251 C 1386.07 419.254 1466.45 419.149 1546.46 419.334 C 1561.2 419.368 1570.16 421.632 1580.91 432.401 C 1595.23 446.733 1592.66 462.83 1592.86 481.228 C 1592.98 492.182 1592.84 503.424 1592.83 514.501 L 1592.84 640.728 L 1592.92 1433.01 C 1592.6 1497.58 1541.97 1489.67 1495.5 1489.62 L 1401.83 1489.52 L 1102.09 1489.39 L 676.033 1489.37 L 539.404 1489.43 C 513.577 1489.46 487.655 1489.7 461.806 1489.14 C 447.004 1489.25 432.961 1483.63 422.892 1472.4 C 406.956 1454.63 410.825 1421.43 410.848 1398.62 L 410.932 1323.62 L 410.919 1079.98 L 410.936 788.731 C 410.919 730.19 409.321 663.701 412.803 605.909 z"></path>
<path transform="translate(0,0)" fill="rgb(209,243,32)" d="M 412.803 605.909 L 412.902 504.814 C 412.878 483.597 408.656 447.892 424.105 432.144 C 440.562 415.368 472.899 419.263 495.106 419.258 L 576.511 419.271 L 830.187 419.279 L 1306.11 419.251 C 1386.07 419.254 1466.45 419.149 1546.46 419.334 C 1561.2 419.368 1570.16 421.632 1580.91 432.401 C 1595.23 446.733 1592.66 462.83 1592.86 481.228 C 1592.98 492.182 1592.84 503.424 1592.83 514.501 L 1592.84 640.728 L 1578.96 640.759 C 1558.73 640.006 1535.53 640.493 1515.11 640.486 L 1401.63 640.432 L 1051.44 640.442 L 637.981 640.464 C 569.393 640.477 494.82 638.941 426.875 640.701 C 422.353 640.781 417.398 640.496 412.843 640.331 C 412.995 628.683 413.123 617.563 412.803 605.909 z"></path>
<path transform="translate(0,0)" fill="rgb(0,0,0)" d="M 490.752 492.814 C 512.034 491.701 543.426 492.396 565.089 492.923 C 565.906 514.637 564.821 538.74 565.264 560.613 C 565.342 564.463 565.243 565.525 563.103 567.475 C 539.09 567.423 514.727 567.952 490.762 567.398 C 489.539 549.088 490.011 511.548 490.752 492.814 z"></path>
<path transform="translate(0,0)" fill="rgb(0,0,0)" d="M 787.139 492.86 C 810.478 492.215 838.111 492.286 861.46 492.818 C 861.917 515.004 862.189 545.251 861.103 567.073 C 838.505 568.039 809.654 567.959 786.953 567.411 C 786.422 545.115 785.965 514.847 787.139 492.86 z"></path>
<path transform="translate(0,0)" fill="rgb(0,0,0)" d="M 639.391 492.973 C 662.532 491.974 690.334 492.373 713.535 492.894 C 714.317 506.879 714.135 554.958 713.043 567.255 C 692.749 568.529 660.001 567.816 639.05 567.497 C 638.944 544.524 638.208 515.59 639.391 492.973 z"></path>
<path transform="translate(0,0)" fill="url(#svgi_r_2p___Gradient1)" d="M 412.803 605.909 C 413.123 617.563 412.995 628.683 412.843 640.331 C 417.398 640.496 422.353 640.781 426.875 640.701 L 426.917 1190.72 L 426.884 1361.88 L 426.855 1415.38 C 426.854 1424.79 426.706 1434.91 427.145 1444.21 C 427.464 1450.99 432.415 1459.28 437.137 1463.93 C 442.169 1468.89 450.025 1473.69 457.292 1473.93 C 473.22 1474.47 489.541 1474.31 505.485 1474.31 L 592.594 1474.27 L 859.234 1474.25 L 1334.12 1474.13 C 1402.85 1474.12 1471.63 1474.15 1540.36 1474.2 C 1551.09 1474.21 1560.31 1471.93 1568.21 1464.3 C 1573.58 1459.12 1577.72 1451.45 1578.27 1443.96 C 1578.95 1434.88 1578.76 1424.43 1578.76 1415.24 L 1578.73 1366.43 L 1578.63 1202.31 L 1578.96 640.759 L 1592.84 640.728 L 1592.92 1433.01 C 1592.6 1497.58 1541.97 1489.67 1495.5 1489.62 L 1401.83 1489.52 L 1102.09 1489.39 L 676.033 1489.37 L 539.404 1489.43 C 513.577 1489.46 487.655 1489.7 461.806 1489.14 C 447.004 1489.25 432.961 1483.63 422.892 1472.4 C 406.956 1454.63 410.825 1421.43 410.848 1398.62 L 410.932 1323.62 L 410.919 1079.98 L 410.936 788.731 C 410.919 730.19 409.321 663.701 412.803 605.909 z"></path>
<path transform="translate(0,0)" fill="rgb(229,229,227)" d="M 606.041 781.383 C 613.47 785.148 632.5 799.108 640.262 804.558 L 705.694 850.499 L 930.195 1007.64 L 930.211 1064.12 C 905.287 1081.12 878.971 1100.95 854.304 1118.81 L 675.599 1249.35 L 606.107 1299.6 C 605.585 1261.76 605.98 1223.1 605.972 1185.21 L 811.115 1036.02 C 794.057 1023.42 773.662 1010.34 755.952 997.985 L 605.98 893.879 L 606.041 781.383 z"></path>
<path transform="translate(0,0)" fill="rgb(229,229,227)" d="M 930.415 1230.28 C 968.975 1229.37 1011.58 1230.2 1050.46 1230.2 L 1246.76 1230.37 L 1246.63 1304.08 L 930.391 1304.12 L 930.415 1230.28 z"></path>
</svg>